<svg xmlns="http://www.w3.org/2000/svg" viewBox="0 0 41 41" shape-rendering="crispEdges"><path fill="#FFFFFF" d="M0 0h41v41H0z"/><path stroke="#043C3D" d="M2 2.5h7m1 0h3m2 0h2m1 0h1m1 0h1m1 0h1m1 0h2m1 0h1m2 0h1m1 0h7M2 3.5h1m5 0h1m1 0h1m1 0h2m3 0h1m1 0h1m1 0h6m3 0h1m1 0h1m5 0h1M2 4.5h1m1 0h3m1 0h1m2 0h1m4 0h1m5 0h1m2 0h1m1 0h3m2 0h1m1 0h3m1 0h1M2 5.5h1m1 0h3m1 0h1m1 0h3m1 0h6m1 0h2m1 0h1m1 0h3m3 0h1m1 0h3m1 0h1M2 6.5h1m1 0h3m1 0h1m2 0h3m1 0h1m2 0h4m2 0h1m1 0h4m2 0h1m1 0h3m1 0h1M2 7.5h1m5 0h1m2 0h1m1 0h1m2 0h2m3 0h2m4 0h1m2 0h1m1 0h1m5 0h1M2 8.5h7m1 0h1m1 0h1m1 0h1m1 0h1m1 0h1m1 0h1m1 0h1m1 0h1m1 0h1m1 0h1m1 0h1m1 0h7M10 9.5h2m1 0h2m3 0h3m1 0h1m2 0h2m1 0h3M2 10.5h1m1 0h2m1 0h3m2 0h3m1 0h1m1 0h1m2 0h3m2 0h1m1 0h1m1 0h1m1 0h1m2 0h1m1 0h2M2 11.5h3m1 0h2m1 0h1m1 0h1m1 0h1m3 0h2m4 0h1m1 0h1m5 0h1m1 0h1m2 0h2M3 12.5h1m4 0h1m1 0h1m1 0h6m1 0h1m4 0h5m4 0h4M2 13.5h2m2 0h1m2 0h1m1 0h1m3 0h1m1 0h1m3 0h1m4 0h6m2 0h3M3 14.5h2m1 0h1m1 0h1m3 0h5m2 0h2m3 0h2m1 0h6m1 0h1m1 0h3M4 15.5h1m1 0h1m3 0h6m1 0h2m2 0h1m2 0h1m1 0h1m2 0h2m1 0h4m1 0h2M3 16.5h1m2 0h3m6 0h2m2 0h3m2 0h1m1 0h2m6 0h1m1 0h1M9 17.5h2m2 0h1m4 0h7m1 0h1m1 0h3m1 0h3M7 18.5h4m5 0h9m2 0h1m2 0h1m4 0h3M5 19.5h1m6 0h4m2 0h2m1 0h2m1 0h2m1 0h1m1 0h1m2 0h2m2 0h3M2 20.5h2m1 0h1m1 0h4m2 0h1m1 0h1m1 0h3m1 0h1m4 0h1m1 0h3m2 0h1m1 0h1m1 0h2M2 21.5h1m6 0h2m3 0h2m3 0h3m2 0h3m3 0h3m1 0h2m1 0h1M2 22.5h1m2 0h2m1 0h1m3 0h5m1 0h3m2 0h2m3 0h1m1 0h2m1 0h2m3 0h1M2 23.5h1m2 0h1m1 0h1m1 0h1m1 0h1m2 0h1m3 0h1m1 0h2m1 0h1m1 0h1m1 0h1m2 0h2m3 0h1m1 0h1M2 24.5h3m1 0h1m1 0h1m2 0h1m1 0h4m2 0h1m2 0h5m6 0h1M2 25.5h1m2 0h1m4 0h1m3 0h1m5 0h1m5 0h2m3 0h1m2 0h4M3 26.5h2m2 0h2m4 0h3m1 0h1m2 0h1m1 0h1m1 0h1m1 0h2m1 0h1m1 0h2m1 0h1m1 0h3M3 27.5h1m2 0h1m6 0h1m4 0h3m1 0h2m2 0h1m1 0h3m1 0h3m2 0h2M3 28.5h1m4 0h3m1 0h4m1 0h3m1 0h3m6 0h1m2 0h1m1 0h3M2 29.5h1m1 0h1m2 0h1m2 0h2m2 0h1m1 0h1m1 0h1m4 0h1m1 0h1m3 0h1m1 0h3m3 0h1M4 30.5h8m1 0h2m2 0h2m1 0h1m1 0h3m1 0h2m2 0h7M10 31.5h2m1 0h3m1 0h1m1 0h2m1 0h1m2 0h2m3 0h1m3 0h1m1 0h1m1 0h1M2 32.5h7m1 0h1m1 0h1m2 0h5m2 0h3m3 0h1m1 0h1m1 0h1m1 0h1m1 0h3M2 33.5h1m5 0h1m1 0h1m3 0h1m1 0h2m6 0h2m3 0h2m3 0h1M2 34.5h1m1 0h3m1 0h1m2 0h2m2 0h1m4 0h2m2 0h1m5 0h6m1 0h2M2 35.5h1m1 0h3m1 0h1m1 0h5m2 0h1m2 0h1m1 0h2m1 0h1m1 0h2m3 0h1m1 0h2m2 0h1M2 36.5h1m1 0h3m1 0h1m1 0h1m2 0h3m2 0h8m2 0h5m1 0h3M2 37.5h1m5 0h1m2 0h1m3 0h1m2 0h1m1 0h1m1 0h1m2 0h1m1 0h3m3 0h4M2 38.5h7m1 0h2m1 0h1m3 0h3m1 0h1m2 0h1m2 0h2m3 0h1m1 0h1m1 0h3"/></svg>
